<svg version="1.1" id="Layer_1" xmlns="http://www.w3.org/2000/svg" xmlns:xlink="http://www.w3.org/1999/xlink" x="0px" y="0px"
	 width="100%" viewBox="0 0 574 434" enable-background="new 0 0 574 434" xml:space="preserve">
<path fill="#000000" opacity="1.000000" stroke="none" 
	d="
M391.000000,435.000000 
	C260.666687,435.000000 130.833389,435.000000 1.000070,435.000000 
	C1.000046,290.333405 1.000046,145.666794 1.000023,1.000147 
	C192.333237,1.000098 383.666473,1.000098 574.999756,1.000049 
	C574.999878,145.666519 574.999878,290.333038 574.999939,434.999786 
	C513.833313,435.000000 452.666656,435.000000 391.000000,435.000000 
M210.226181,293.932983 
	C210.040939,294.585083 209.855698,295.237183 209.270523,296.473724 
	C208.649338,298.276459 208.028152,300.079224 207.079910,302.259796 
	C206.890228,302.863892 206.700562,303.467987 206.091003,304.785339 
	C205.574249,306.367523 205.057480,307.949707 204.540726,309.531921 
	C205.073273,309.750916 205.605820,309.969940 206.138367,310.188934 
	C206.857224,308.630493 207.576080,307.072021 208.801788,305.027069 
	C209.076050,304.137329 209.350296,303.247559 210.049484,301.790466 
	C210.636017,300.000488 211.222565,298.210541 212.221558,295.777527 
	C212.699554,294.385162 213.177567,292.992767 213.655563,291.600403 
	C213.167603,291.372559 212.679626,291.144714 212.191666,290.916870 
	C211.703659,291.766388 211.215652,292.615936 210.226181,293.932983 
M200.437775,326.636017 
	C200.585251,326.083832 200.732742,325.531647 201.345383,324.395050 
	C203.042252,319.728180 204.739120,315.061310 206.436005,310.394409 
	C205.766678,310.120148 205.097366,309.845886 204.428040,309.571625 
	C202.419586,314.698425 200.411133,319.825226 198.055634,325.426514 
	C197.914246,325.977631 197.772858,326.528778 197.232468,327.707611 
	C196.609451,329.516266 195.986435,331.324951 194.915710,333.939301 
	C194.331665,335.176056 193.747635,336.412811 193.043884,337.903076 
	C190.169525,331.619568 187.511917,325.809967 184.991409,319.325287 
	C184.894043,318.882843 184.796661,318.440430 184.705093,317.270233 
	C181.620926,309.049713 178.582306,300.811707 175.440216,292.613373 
	C172.066483,283.810608 172.023956,283.823273 162.670151,284.145966 
	C162.426514,284.154358 162.193008,284.456818 161.506821,284.932983 
	C164.195084,291.540344 166.923004,298.245209 169.535492,305.352509 
	C169.570923,305.659912 169.730362,305.875732 170.048080,306.769806 
	C175.234085,320.219482 180.391022,333.680481 185.633545,347.108093 
	C186.549744,349.454773 187.825897,351.660919 188.935806,353.931976 
	C189.355927,353.716187 189.776047,353.500397 190.196167,353.284607 
	C192.370209,347.386444 194.544266,341.488312 197.100281,335.005646 
	C198.058121,332.335449 199.015976,329.665253 200.437775,326.636017 
M215.713196,279.338409 
	C215.713196,279.338409 215.581711,279.640320 215.581711,279.640320 
	C215.581711,279.640320 215.808609,279.878845 215.410782,280.588165 
	C215.292847,281.114258 215.174927,281.640320 214.753250,282.305176 
	C214.559219,282.512146 214.568497,282.709503 214.276764,283.647675 
	C213.616104,285.947815 212.955444,288.247955 212.294769,290.548096 
	C212.932678,290.690613 213.570572,290.833130 214.208481,290.975677 
	C216.258682,285.491547 218.308899,280.007416 220.831787,273.952484 
	C223.578094,266.848022 226.324402,259.743561 229.070709,252.639114 
	C228.466751,252.372482 227.862793,252.105835 227.258835,251.839203 
	C223.085144,258.215820 221.324661,265.761292 218.179047,273.396881 
	C217.463303,275.348846 216.747559,277.300781 215.713196,279.338409 
M295.313721,203.522415 
	C295.313721,203.522415 295.497650,203.315247 295.497650,203.315247 
	C295.497650,203.315247 295.409332,203.052658 296.040741,202.690369 
	C303.048950,194.874191 307.805176,185.742676 310.727417,175.781433 
	C316.765442,155.199402 322.603973,134.554535 328.153931,113.836227 
	C329.819244,107.619598 330.651062,101.105087 331.153259,94.671509 
	C331.706879,87.579330 327.362244,82.010460 321.079803,80.537315 
	C314.100311,78.900726 307.981079,81.425644 305.274963,88.425728 
	C302.720978,95.032295 301.517395,102.155968 299.644043,109.031532 
	C294.180267,129.084900 288.895020,149.191452 283.045258,169.132065 
	C281.510803,174.362564 278.179474,179.065948 275.255524,184.835938 
	C273.066559,182.079620 271.463531,180.710617 270.686646,178.972397 
	C266.979553,170.677704 262.925873,162.474060 260.047821,153.885391 
	C253.127426,133.233536 246.878296,112.357735 240.181641,91.629364 
	C237.813034,84.297775 231.093628,80.964783 224.005859,83.089851 
	C217.037338,85.179161 213.444382,91.021309 215.458298,98.218430 
	C222.628265,123.841698 229.806641,149.467331 237.453537,174.950500 
	C241.495117,188.419037 248.675232,200.071106 260.465210,208.427078 
	C269.507660,214.835754 280.430298,214.868683 289.791138,208.136520 
	C291.305023,206.803314 292.818939,205.470093 294.821045,203.965546 
	C294.893188,203.808899 294.965332,203.652237 295.313721,203.522415 
M285.090881,302.023041 
	C275.229492,298.648438 267.816925,303.384796 260.781952,309.886505 
	C257.948029,303.692047 253.720367,299.586975 247.069992,301.264709 
	C241.694077,302.620911 236.693329,305.464233 231.531555,307.645599 
	C231.408920,305.876343 231.254013,303.641296 231.070404,300.992371 
	C227.707642,302.181732 224.790283,303.213562 221.791168,304.274323 
	C221.791168,320.565765 221.791168,336.673370 221.791168,352.949219 
	C224.948196,352.949219 227.895721,352.949219 231.355042,352.949219 
	C231.355042,341.229248 231.347595,329.609070 231.358124,317.988922 
	C231.363464,312.086823 236.069763,307.921387 243.259125,307.419922 
	C248.890503,307.027161 250.818329,308.926239 251.703720,315.960083 
	C251.951553,317.928894 251.964233,319.935699 251.968964,321.925323 
	C251.993439,332.218262 251.980331,342.511322 251.980331,352.997925 
	C255.521469,352.997925 258.620941,352.997925 261.944275,352.997925 
	C261.944275,341.003235 261.786713,329.346680 262.076599,317.701263 
	C262.134918,315.358826 263.338531,312.512390 264.978699,310.850189 
	C268.650726,307.128784 273.610229,306.233643 278.398376,308.124573 
	C283.179199,310.012634 282.701874,314.783417 282.727692,318.916992 
	C282.798035,330.173340 282.751862,341.430389 282.751862,353.016022 
	C286.317566,353.016022 289.475067,353.016022 292.384094,353.016022 
	C292.384094,340.102112 292.629364,327.644684 292.263275,315.205292 
	C292.117004,310.234314 290.697388,305.264343 285.090881,302.023041 
M353.507904,360.057587 
	C342.498474,347.075531 331.489014,334.093506 320.341858,320.949036 
	C327.700287,314.365173 334.715973,308.087952 341.847321,301.707275 
	C337.123291,300.318604 337.171265,300.371307 331.545258,305.492035 
	C325.506165,310.988708 319.364716,316.372925 312.373077,322.603729 
	C312.373077,313.519470 312.373077,305.883942 312.373077,298.248444 
	C312.373077,290.636444 312.373077,283.024414 312.373077,274.780518 
	C308.715607,275.938782 305.630524,276.915741 302.518677,277.901215 
	C302.518677,303.166901 302.518677,328.231476 302.518677,353.279785 
	C305.864563,353.279785 308.921570,353.279785 312.518311,353.279785 
	C312.518311,344.248108 312.518311,335.562805 312.518311,325.589081 
	C314.530212,327.910706 315.709137,329.215668 316.827576,330.570557 
	C324.961243,340.423584 333.164978,350.220337 341.181335,360.168060 
	C347.308136,367.771027 355.352112,367.893280 364.735535,367.037872 
	C360.652985,364.480621 357.400604,362.443390 353.507904,360.057587 
M206.740860,114.978775 
	C192.604401,156.414185 220.041580,194.890396 249.556091,203.313095 
	C245.662094,199.279510 242.987381,195.196045 239.231018,192.829391 
	C213.417618,176.566010 202.089813,143.778946 213.121017,115.114487 
	C214.816849,110.707924 214.335541,107.102524 212.428345,102.073120 
	C210.340042,106.752655 208.668503,110.498322 206.740860,114.978775 
M378.014679,343.216858 
	C376.921234,348.027740 373.667328,350.265381 368.989502,349.968658 
	C366.442352,349.807068 363.988708,348.478394 361.435822,347.953613 
	C360.374878,347.735565 359.165131,348.241547 358.023041,348.418274 
	C358.046814,348.921082 358.070587,349.423920 358.094391,349.926758 
	C360.379150,350.823090 362.599518,351.973389 364.959778,352.572235 
	C375.659332,355.286804 385.042633,349.179016 386.173828,338.913391 
	C386.941895,331.943115 382.224915,328.428528 377.346954,325.132965 
	C372.678619,321.979004 367.764130,319.184998 363.144775,315.964630 
	C360.144958,313.873413 358.365906,310.347443 360.573303,307.329590 
	C362.241180,305.049347 365.787354,303.055450 368.598907,302.911316 
	C375.878906,302.538147 377.906006,308.560272 380.047638,314.071930 
	C380.384186,314.938110 381.187164,315.623047 381.774506,316.391754 
	C382.158600,315.348938 382.977631,314.252655 382.856995,313.271912 
	C382.007446,306.365570 377.107727,300.932617 371.209839,300.086975 
	C363.239380,298.944183 355.926575,302.232056 353.414886,308.087585 
	C350.823975,314.127960 352.858887,320.588470 359.066040,325.623291 
	C360.737274,326.978882 362.604065,328.101196 364.422943,329.265198 
	C367.642365,331.325500 371.214844,332.977509 374.019867,335.491791 
	C375.913422,337.189087 376.743866,340.072418 378.014679,343.216858 
M342.524628,155.223648 
	C347.057495,136.503906 344.765045,118.801033 334.138367,102.332794 
	C333.793823,106.945518 333.739105,111.648964 335.154541,115.858002 
	C344.362610,143.239731 335.834564,172.118378 313.265594,189.647598 
	C309.034912,192.933533 305.390656,196.974396 301.475769,200.666901 
	C301.973236,201.153229 302.470673,201.639557 302.968140,202.125885 
	C323.139343,192.909317 336.156952,177.454697 342.524628,155.223648 
M285.426056,144.837311 
	C288.314178,139.391312 288.944763,133.679886 284.377625,129.186600 
	C280.188568,125.065239 274.541138,122.406746 268.519745,124.469261 
	C262.986816,126.364456 260.027588,131.020782 259.491211,136.943558 
	C258.991180,142.464951 262.615814,148.537064 267.547302,150.636963 
	C274.026154,153.395737 279.396057,151.826859 285.426056,144.837311 
M285.017181,67.707848 
	C266.547455,64.947037 249.609192,68.632172 233.929886,79.409279 
	C238.990768,82.609550 238.975830,82.579895 243.477783,80.313187 
	C262.291473,70.840607 281.457764,69.947594 300.700836,78.661613 
	C304.671692,80.459770 307.513794,81.053001 311.234253,76.088844 
	C302.440094,73.214630 294.158447,70.507919 285.017181,67.707848 
z"/>
<path fill="#FBFBFB" opacity="1.000000" stroke="none" 
	d="
M289.128815,208.311523 
	C280.430298,214.868683 269.507660,214.835754 260.465210,208.427078 
	C248.675232,200.071106 241.495117,188.419037 237.453537,174.950500 
	C229.806641,149.467331 222.628265,123.841698 215.458298,98.218430 
	C213.444382,91.021309 217.037338,85.179161 224.005859,83.089851 
	C231.093628,80.964783 237.813034,84.297775 240.181641,91.629364 
	C246.878296,112.357735 253.127426,133.233536 260.047821,153.885391 
	C262.925873,162.474060 266.979553,170.677704 270.686646,178.972397 
	C271.463531,180.710617 273.066559,182.079620 275.255524,184.835938 
	C278.179474,179.065948 281.510803,174.362564 283.045258,169.132065 
	C288.895020,149.191452 294.180267,129.084900 299.644043,109.031532 
	C301.517395,102.155968 302.720978,95.032295 305.274963,88.425728 
	C307.981079,81.425644 314.100311,78.900726 321.079803,80.537315 
	C327.362244,82.010460 331.706879,87.579330 331.153259,94.671509 
	C330.651062,101.105087 329.819244,107.619598 328.153931,113.836227 
	C322.603973,134.554535 316.765442,155.199402 310.727417,175.781433 
	C307.805176,185.742676 303.048950,194.874191 295.627625,202.909714 
	C295.214539,203.129059 295.037476,203.495560 295.037476,203.495560 
	C294.965332,203.652237 294.893188,203.808899 294.177856,203.978607 
	C292.242950,203.702087 290.951202,203.412506 289.128815,203.003952 
	C289.128815,205.216248 289.128815,206.763885 289.128815,208.311523 
z"/>
<path fill="#F5F5F4" opacity="1.000000" stroke="none" 
	d="
M285.437500,302.207886 
	C290.697388,305.264343 292.117004,310.234314 292.263275,315.205292 
	C292.629364,327.644684 292.384094,340.102112 292.384094,353.016022 
	C289.475067,353.016022 286.317566,353.016022 282.751862,353.016022 
	C282.751862,341.430389 282.798035,330.173340 282.727692,318.916992 
	C282.701874,314.783417 283.179199,310.012634 278.398376,308.124573 
	C273.610229,306.233643 268.650726,307.128784 264.978699,310.850189 
	C263.338531,312.512390 262.134918,315.358826 262.076599,317.701263 
	C261.786713,329.346680 261.944275,341.003235 261.944275,352.997925 
	C258.620941,352.997925 255.521469,352.997925 251.980331,352.997925 
	C251.980331,342.511322 251.993439,332.218262 251.968964,321.925323 
	C251.964233,319.935699 251.951553,317.928894 251.703720,315.960083 
	C250.818329,308.926239 248.890503,307.027161 243.259125,307.419922 
	C236.069763,307.921387 231.363464,312.086823 231.358124,317.988922 
	C231.347595,329.609070 231.355042,341.229248 231.355042,352.949219 
	C227.895721,352.949219 224.948196,352.949219 221.791168,352.949219 
	C221.791168,336.673370 221.791168,320.565765 221.791168,304.274323 
	C224.790283,303.213562 227.707642,302.181732 231.070404,300.992371 
	C231.254013,303.641296 231.408920,305.876343 231.531555,307.645599 
	C236.693329,305.464233 241.694077,302.620911 247.069992,301.264709 
	C253.720367,299.586975 257.948029,303.692047 260.781952,309.886505 
	C267.816925,303.384796 275.229492,298.648438 285.437500,302.207886 
z"/>
<path fill="#F2F2F1" opacity="1.000000" stroke="none" 
	d="
M353.828064,360.231873 
	C357.400604,362.443390 360.652985,364.480621 364.735535,367.037872 
	C355.352112,367.893280 347.308136,367.771027 341.181335,360.168060 
	C333.164978,350.220337 324.961243,340.423584 316.827576,330.570557 
	C315.709137,329.215668 314.530212,327.910706 312.518311,325.589081 
	C312.518311,335.562805 312.518311,344.248108 312.518311,353.279785 
	C308.921570,353.279785 305.864563,353.279785 302.518677,353.279785 
	C302.518677,328.231476 302.518677,303.166901 302.518677,277.901215 
	C305.630524,276.915741 308.715607,275.938782 312.373077,274.780518 
	C312.373077,283.024414 312.373077,290.636444 312.373077,298.248444 
	C312.373077,305.883942 312.373077,313.519470 312.373077,322.603729 
	C319.364716,316.372925 325.506165,310.988708 331.545258,305.492035 
	C337.171265,300.371307 337.123291,300.318604 341.847321,301.707275 
	C334.715973,308.087952 327.700287,314.365173 320.341858,320.949036 
	C331.489014,334.093506 342.498474,347.075531 353.828064,360.231873 
z"/>
<path fill="#ECEBE9" opacity="1.000000" stroke="none" 
	d="
M206.868896,114.611374 
	C208.668503,110.498322 210.340042,106.752655 212.428345,102.073120 
	C214.335541,107.102524 214.816849,110.707924 213.121017,115.114487 
	C202.089813,143.778946 213.417618,176.566010 239.231018,192.829391 
	C242.987381,195.196045 245.662094,199.279510 249.556091,203.313095 
	C220.041580,194.890396 192.604401,156.414185 206.868896,114.611374 
z"/>
<path fill="#EEEEEC" opacity="1.000000" stroke="none" 
	d="
M378.032257,342.821045 
	C376.743866,340.072418 375.913422,337.189087 374.019867,335.491791 
	C371.214844,332.977509 367.642365,331.325500 364.422943,329.265198 
	C362.604065,328.101196 360.737274,326.978882 359.066040,325.623291 
	C352.858887,320.588470 350.823975,314.127960 353.414886,308.087585 
	C355.926575,302.232056 363.239380,298.944183 371.209839,300.086975 
	C377.107727,300.932617 382.007446,306.365570 382.856995,313.271912 
	C382.977631,314.252655 382.158600,315.348938 381.774506,316.391754 
	C381.187164,315.623047 380.384186,314.938110 380.047638,314.071930 
	C377.906006,308.560272 375.878906,302.538147 368.598907,302.911316 
	C365.787354,303.055450 362.241180,305.049347 360.573303,307.329590 
	C358.365906,310.347443 360.144958,313.873413 363.144775,315.964630 
	C367.764130,319.184998 372.678619,321.979004 377.346954,325.132965 
	C382.224915,328.428528 386.941895,331.943115 386.173828,338.913391 
	C385.042633,349.179016 375.659332,355.286804 364.959778,352.572235 
	C362.599518,351.973389 360.379150,350.823090 358.094391,349.926758 
	C358.070587,349.423920 358.046814,348.921082 358.023041,348.418274 
	C359.165131,348.241547 360.374878,347.735565 361.435822,347.953613 
	C363.988708,348.478394 366.442352,349.807068 368.989502,349.968658 
	C373.667328,350.265381 376.921234,348.027740 378.032257,342.821045 
z"/>
<path fill="#ECEBEA" opacity="1.000000" stroke="none" 
	d="
M342.426208,155.626617 
	C336.156952,177.454697 323.139343,192.909317 302.968140,202.125885 
	C302.470673,201.639557 301.973236,201.153229 301.475769,200.666901 
	C305.390656,196.974396 309.034912,192.933533 313.265594,189.647598 
	C335.834564,172.118378 344.362610,143.239731 335.154541,115.858002 
	C333.739105,111.648964 333.793823,106.945518 334.138367,102.332794 
	C344.765045,118.801033 347.057495,136.503906 342.426208,155.626617 
z"/>
<path fill="#F2F1F1" opacity="1.000000" stroke="none" 
	d="
M169.650940,304.950043 
	C166.923004,298.245209 164.195084,291.540344 161.506821,284.932983 
	C162.193008,284.456818 162.426514,284.154358 162.670151,284.145966 
	C172.023956,283.823273 172.066483,283.810608 175.440216,292.613373 
	C178.582306,300.811707 181.620926,309.049713 184.366913,317.581665 
	C182.890305,317.639252 181.751907,317.385376 180.444046,317.093719 
	C180.394974,321.302979 182.612183,320.674652 184.854324,320.000336 
	C187.511917,325.809967 190.169525,331.619568 193.043884,337.903076 
	C193.747635,336.412811 194.331665,335.176056 195.424774,334.180115 
	C196.195343,334.810669 196.456833,335.200409 196.718307,335.590179 
	C194.544266,341.488312 192.370209,347.386444 190.196167,353.284607 
	C189.776047,353.500397 189.355927,353.716187 188.935806,353.931976 
	C187.825897,351.660919 186.549744,349.454773 185.633545,347.108093 
	C180.391022,333.680481 175.234085,320.219482 170.407562,306.378601 
	C174.635178,305.407349 176.240768,303.890778 172.361267,299.264496 
	C171.252899,301.589569 170.451920,303.269806 169.650940,304.950043 
z"/>
<path fill="#F8F8F7" opacity="1.000000" stroke="none" 
	d="
M285.270111,145.170944 
	C279.396057,151.826859 274.026154,153.395737 267.547302,150.636963 
	C262.615814,148.537064 258.991180,142.464951 259.491211,136.943558 
	C260.027588,131.020782 262.986816,126.364456 268.519745,124.469261 
	C274.541138,122.406746 280.188568,125.065239 284.377625,129.186600 
	C288.944763,133.679886 288.314178,139.391312 285.270111,145.170944 
z"/>
<path fill="#EBEBE9" opacity="1.000000" stroke="none" 
	d="
M285.446991,67.754524 
	C294.158447,70.507919 302.440094,73.214630 311.234253,76.088844 
	C307.513794,81.053001 304.671692,80.459770 300.700836,78.661613 
	C281.457764,69.947594 262.291473,70.840607 243.477783,80.313187 
	C238.975830,82.579895 238.990768,82.609550 233.929886,79.409279 
	C249.609192,68.632172 266.547455,64.947037 285.446991,67.754524 
z"/>
<path fill="#D6D4D1" opacity="1.000000" stroke="none" 
	d="
M218.568100,272.824310 
	C221.324661,265.761292 223.085144,258.215820 227.258835,251.839203 
	C227.862793,252.105835 228.466751,252.372482 229.070709,252.639114 
	C226.324402,259.743561 223.578094,266.848022 220.363571,273.886688 
	C219.452927,273.488708 219.010513,273.156525 218.568100,272.824310 
z"/>
<path fill="#F2F1F1" opacity="1.000000" stroke="none" 
	d="
M218.373566,273.110596 
	C219.010513,273.156525 219.452927,273.488708 220.127228,274.172089 
	C218.308899,280.007416 216.258682,285.491547 214.208481,290.975677 
	C213.570572,290.833130 212.932678,290.690613 212.294769,290.548096 
	C212.955444,288.247955 213.616104,285.947815 214.655243,283.192230 
	C215.162094,282.551544 215.169846,282.361420 215.057007,282.166412 
	C215.174927,281.640320 215.292847,281.114258 215.722229,280.167725 
	C216.143463,279.581970 216.142853,279.417145 216.031815,279.252747 
	C216.747559,277.300781 217.463303,275.348846 218.373566,273.110596 
z"/>
<path fill="#F2F1F1" opacity="1.000000" stroke="none" 
	d="
M198.402679,324.952026 
	C200.411133,319.825226 202.419586,314.698425 204.428040,309.571625 
	C205.097366,309.845886 205.766678,310.120148 206.436005,310.394409 
	C204.739120,315.061310 203.042252,319.728180 200.802612,324.691467 
	C199.640808,324.975952 199.021744,324.963989 198.402679,324.952026 
z"/>
<path fill="#F2F2F0" opacity="1.000000" stroke="none" 
	d="
M169.593216,305.151276 
	C170.451920,303.269806 171.252899,301.589569 172.361267,299.264496 
	C176.240768,303.890778 174.635178,305.407349 170.390411,305.993713 
	C169.730362,305.875732 169.570923,305.659912 169.593216,305.151276 
z"/>
<path fill="#F2F1F1" opacity="1.000000" stroke="none" 
	d="
M195.648621,333.777252 
	C195.986435,331.324951 196.609451,329.516266 197.724792,327.372864 
	C198.802673,327.023773 199.388245,327.009399 199.973816,326.995056 
	C199.015976,329.665253 198.058121,332.335449 196.909302,335.297913 
	C196.456833,335.200409 196.195343,334.810669 195.648621,333.777252 
z"/>
<path fill="#EFEFED" opacity="1.000000" stroke="none" 
	d="
M289.459961,208.224030 
	C289.128815,206.763885 289.128815,205.216248 289.128815,203.003952 
	C290.951202,203.412506 292.242950,203.702087 293.933777,204.064285 
	C292.818939,205.470093 291.305023,206.803314 289.459961,208.224030 
z"/>
<path fill="#F2F2F0" opacity="1.000000" stroke="none" 
	d="
M184.922867,319.662811 
	C182.612183,320.674652 180.394974,321.302979 180.444046,317.093719 
	C181.751907,317.385376 182.890305,317.639252 184.364014,317.945557 
	C184.796661,318.440430 184.894043,318.882843 184.922867,319.662811 
z"/>
<path fill="#F2F1F1" opacity="1.000000" stroke="none" 
	d="
M208.294922,305.513550 
	C207.576080,307.072021 206.857224,308.630493 206.138367,310.188934 
	C205.605820,309.969940 205.073273,309.750916 204.540726,309.531921 
	C205.057480,307.949707 205.574249,306.367523 206.600067,304.497101 
	C207.504395,304.643768 207.899673,305.078644 208.294922,305.513550 
z"/>
<path fill="#F2F1F1" opacity="1.000000" stroke="none" 
	d="
M207.406967,301.881958 
	C208.028152,300.079224 208.649338,298.276459 209.764526,296.192871 
	C210.453400,295.889557 210.648285,295.867157 211.077545,296.000610 
	C211.477631,296.244537 211.643372,296.332550 211.809097,296.420563 
	C211.222565,298.210541 210.636017,300.000488 209.279724,301.968628 
	C208.142303,302.058533 207.774628,301.970245 207.406967,301.881958 
z"/>
<path fill="#D6D4D1" opacity="1.000000" stroke="none" 
	d="
M200.205795,326.815552 
	C199.388245,327.009399 198.802673,327.023773 197.924286,327.059021 
	C197.772858,326.528778 197.914246,325.977631 198.229156,325.189270 
	C199.021744,324.963989 199.640808,324.975952 200.570038,324.983704 
	C200.732742,325.531647 200.585251,326.083832 200.205795,326.815552 
z"/>
<path fill="#F2F1F1" opacity="1.000000" stroke="none" 
	d="
M210.727661,293.465454 
	C211.215652,292.615936 211.703659,291.766388 212.191666,290.916870 
	C212.679626,291.144714 213.167603,291.372559 213.655563,291.600403 
	C213.177567,292.992767 212.699554,294.385162 212.015320,296.099060 
	C211.643372,296.332550 211.477631,296.244537 211.103607,295.604736 
	C210.839447,294.523773 210.783554,293.994598 210.727661,293.465454 
z"/>
<path fill="#D6D4D1" opacity="1.000000" stroke="none" 
	d="
M207.243439,302.070862 
	C207.774628,301.970245 208.142303,302.058533 209.067261,302.252319 
	C209.350296,303.247559 209.076050,304.137329 208.548370,305.270325 
	C207.899673,305.078644 207.504395,304.643768 206.810013,304.140472 
	C206.700562,303.467987 206.890228,302.863892 207.243439,302.070862 
z"/>
<path fill="#D6D4D1" opacity="1.000000" stroke="none" 
	d="
M210.476929,293.699219 
	C210.783554,293.994598 210.839447,294.523773 210.869247,295.448822 
	C210.648285,295.867157 210.453400,295.889557 209.964493,295.900635 
	C209.855698,295.237183 210.040939,294.585083 210.476929,293.699219 
z"/>
<path fill="#D6D4D1" opacity="1.000000" stroke="none" 
	d="
M214.905121,282.235779 
	C215.169846,282.361420 215.162094,282.551544 214.907394,282.817017 
	C214.568497,282.709503 214.559219,282.512146 214.905121,282.235779 
z"/>
<path fill="#D6D4D1" opacity="1.000000" stroke="none" 
	d="
M215.872498,279.295593 
	C216.142853,279.417145 216.143463,279.581970 215.921143,279.813049 
	C215.808609,279.878845 215.581711,279.640320 215.581711,279.640320 
	C215.581711,279.640320 215.713196,279.338409 215.872498,279.295593 
z"/>
<path fill="#EFEFED" opacity="1.000000" stroke="none" 
	d="
M295.175598,203.508987 
	C295.037476,203.495560 295.214539,203.129059 295.311951,203.090851 
	C295.409332,203.052658 295.497650,203.315247 295.497650,203.315247 
	C295.497650,203.315247 295.313721,203.522415 295.175598,203.508987 
z"/>
</svg>